<svg xmlns="http://www.w3.org/2000/svg" viewBox="0 0 512 512">
  <line x1="275.1" y1="474.7" x2="208.0" y2="460.6" stroke="#60A5FA" stroke-width="3.2" opacity="0.6" stroke-linecap="round"/>
  <line x1="275.1" y1="474.7" x2="252.2" y2="424.2" stroke="#60A5FA" stroke-width="3.2" opacity="0.6" stroke-linecap="round"/>
  <line x1="208.0" y1="460.6" x2="158.5" y2="452.4" stroke="#60A5FA" stroke-width="3.2" opacity="0.6" stroke-linecap="round"/>
  <line x1="208.0" y1="460.6" x2="252.2" y2="424.2" stroke="#60A5FA" stroke-width="3.2" opacity="0.6" stroke-linecap="round"/>
  <line x1="208.0" y1="460.6" x2="177.8" y2="411.3" stroke="#60A5FA" stroke-width="3.2" opacity="0.6" stroke-linecap="round"/>
  <line x1="158.5" y1="452.4" x2="112.5" y2="420.8" stroke="#60A5FA" stroke-width="3.2" opacity="0.6" stroke-linecap="round"/>
  <line x1="158.5" y1="452.4" x2="177.8" y2="411.3" stroke="#60A5FA" stroke-width="3.2" opacity="0.6" stroke-linecap="round"/>
  <line x1="112.5" y1="420.8" x2="63.5" y2="348.4" stroke="#60A5FA" stroke-width="3.2" opacity="0.6" stroke-linecap="round"/>
  <line x1="112.5" y1="420.8" x2="177.8" y2="411.3" stroke="#60A5FA" stroke-width="3.2" opacity="0.6" stroke-linecap="round"/>
  <line x1="112.5" y1="420.8" x2="127.1" y2="364.0" stroke="#60A5FA" stroke-width="3.2" opacity="0.6" stroke-linecap="round"/>
  <line x1="63.5" y1="348.4" x2="50.2" y2="301.9" stroke="#60A5FA" stroke-width="3.2" opacity="0.6" stroke-linecap="round"/>
  <line x1="63.5" y1="348.4" x2="127.1" y2="364.0" stroke="#60A5FA" stroke-width="3.2" opacity="0.6" stroke-linecap="round"/>
  <line x1="63.5" y1="348.4" x2="100.5" y2="309.6" stroke="#60A5FA" stroke-width="3.2" opacity="0.6" stroke-linecap="round"/>
  <line x1="50.2" y1="301.9" x2="43.3" y2="241.0" stroke="#60A5FA" stroke-width="3.2" opacity="0.6" stroke-linecap="round"/>
  <line x1="50.2" y1="301.9" x2="100.5" y2="309.6" stroke="#60A5FA" stroke-width="3.2" opacity="0.6" stroke-linecap="round"/>
  <line x1="50.2" y1="301.9" x2="92.3" y2="258.6" stroke="#60A5FA" stroke-width="3.2" opacity="0.6" stroke-linecap="round"/>
  <line x1="43.3" y1="241.0" x2="58.4" y2="172.0" stroke="#60A5FA" stroke-width="3.2" opacity="0.6" stroke-linecap="round"/>
  <line x1="43.3" y1="241.0" x2="92.3" y2="258.6" stroke="#60A5FA" stroke-width="3.2" opacity="0.6" stroke-linecap="round"/>
  <line x1="43.3" y1="241.0" x2="109.4" y2="182.8" stroke="#60A5FA" stroke-width="3.2" opacity="0.6" stroke-linecap="round"/>
  <line x1="58.4" y1="172.0" x2="99.0" y2="104.6" stroke="#60A5FA" stroke-width="3.2" opacity="0.6" stroke-linecap="round"/>
  <line x1="58.4" y1="172.0" x2="109.4" y2="182.8" stroke="#60A5FA" stroke-width="3.2" opacity="0.6" stroke-linecap="round"/>
  <line x1="99.0" y1="104.6" x2="138.9" y2="68.8" stroke="#60A5FA" stroke-width="3.2" opacity="0.6" stroke-linecap="round"/>
  <line x1="99.0" y1="104.6" x2="109.4" y2="182.8" stroke="#60A5FA" stroke-width="3.2" opacity="0.6" stroke-linecap="round"/>
  <line x1="99.0" y1="104.6" x2="144.0" y2="140.2" stroke="#60A5FA" stroke-width="3.2" opacity="0.6" stroke-linecap="round"/>
  <line x1="138.9" y1="68.8" x2="190.4" y2="57.3" stroke="#60A5FA" stroke-width="3.2" opacity="0.6" stroke-linecap="round"/>
  <line x1="138.9" y1="68.8" x2="144.0" y2="140.2" stroke="#60A5FA" stroke-width="3.2" opacity="0.6" stroke-linecap="round"/>
  <line x1="138.9" y1="68.8" x2="204.6" y2="101.1" stroke="#60A5FA" stroke-width="3.2" opacity="0.6" stroke-linecap="round"/>
  <line x1="190.4" y1="57.3" x2="262.9" y2="48.5" stroke="#60A5FA" stroke-width="3.2" opacity="0.6" stroke-linecap="round"/>
  <line x1="190.4" y1="57.3" x2="204.6" y2="101.1" stroke="#60A5FA" stroke-width="3.2" opacity="0.6" stroke-linecap="round"/>
  <line x1="190.4" y1="57.3" x2="253.4" y2="82.7" stroke="#60A5FA" stroke-width="3.2" opacity="0.6" stroke-linecap="round"/>
  <line x1="262.9" y1="48.5" x2="253.4" y2="82.7" stroke="#60A5FA" stroke-width="3.2" opacity="0.6" stroke-linecap="round"/>
  <line x1="252.2" y1="424.2" x2="177.8" y2="411.3" stroke="#60A5FA" stroke-width="3.2" opacity="0.6" stroke-linecap="round"/>
  <line x1="252.2" y1="424.2" x2="233.8" y2="380.9" stroke="#60A5FA" stroke-width="3.2" opacity="0.6" stroke-linecap="round"/>
  <line x1="177.8" y1="411.3" x2="127.1" y2="364.0" stroke="#60A5FA" stroke-width="3.2" opacity="0.6" stroke-linecap="round"/>
  <line x1="177.8" y1="411.3" x2="233.8" y2="380.9" stroke="#60A5FA" stroke-width="3.2" opacity="0.6" stroke-linecap="round"/>
  <line x1="177.8" y1="411.3" x2="178.6" y2="354.6" stroke="#60A5FA" stroke-width="3.2" opacity="0.6" stroke-linecap="round"/>
  <line x1="127.1" y1="364.0" x2="100.5" y2="309.6" stroke="#60A5FA" stroke-width="3.2" opacity="0.6" stroke-linecap="round"/>
  <line x1="127.1" y1="364.0" x2="178.6" y2="354.6" stroke="#60A5FA" stroke-width="3.2" opacity="0.6" stroke-linecap="round"/>
  <line x1="127.1" y1="364.0" x2="149.1" y2="315.9" stroke="#60A5FA" stroke-width="3.2" opacity="0.6" stroke-linecap="round"/>
  <line x1="100.5" y1="309.6" x2="92.3" y2="258.6" stroke="#60A5FA" stroke-width="3.2" opacity="0.6" stroke-linecap="round"/>
  <line x1="100.5" y1="309.6" x2="149.1" y2="315.9" stroke="#60A5FA" stroke-width="3.2" opacity="0.6" stroke-linecap="round"/>
  <line x1="100.5" y1="309.6" x2="128.8" y2="253.6" stroke="#60A5FA" stroke-width="3.2" opacity="0.6" stroke-linecap="round"/>
  <line x1="92.3" y1="258.6" x2="109.4" y2="182.8" stroke="#60A5FA" stroke-width="3.2" opacity="0.6" stroke-linecap="round"/>
  <line x1="92.3" y1="258.6" x2="128.8" y2="253.6" stroke="#60A5FA" stroke-width="3.2" opacity="0.6" stroke-linecap="round"/>
  <line x1="109.4" y1="182.8" x2="144.0" y2="140.2" stroke="#60A5FA" stroke-width="3.2" opacity="0.6" stroke-linecap="round"/>
  <line x1="109.4" y1="182.8" x2="128.8" y2="253.6" stroke="#60A5FA" stroke-width="3.2" opacity="0.6" stroke-linecap="round"/>
  <line x1="109.4" y1="182.8" x2="146.0" y2="200.2" stroke="#60A5FA" stroke-width="3.2" opacity="0.6" stroke-linecap="round"/>
  <line x1="144.0" y1="140.2" x2="204.6" y2="101.1" stroke="#60A5FA" stroke-width="3.2" opacity="0.6" stroke-linecap="round"/>
  <line x1="144.0" y1="140.2" x2="146.0" y2="200.2" stroke="#60A5FA" stroke-width="3.2" opacity="0.6" stroke-linecap="round"/>
  <line x1="144.0" y1="140.2" x2="181.0" y2="161.8" stroke="#60A5FA" stroke-width="3.2" opacity="0.6" stroke-linecap="round"/>
  <line x1="204.6" y1="101.1" x2="253.4" y2="82.7" stroke="#60A5FA" stroke-width="3.2" opacity="0.6" stroke-linecap="round"/>
  <line x1="204.6" y1="101.1" x2="181.0" y2="161.8" stroke="#60A5FA" stroke-width="3.2" opacity="0.6" stroke-linecap="round"/>
  <line x1="204.6" y1="101.1" x2="236.8" y2="140.5" stroke="#60A5FA" stroke-width="3.2" opacity="0.6" stroke-linecap="round"/>
  <line x1="253.4" y1="82.7" x2="236.8" y2="140.5" stroke="#60A5FA" stroke-width="3.2" opacity="0.6" stroke-linecap="round"/>
  <line x1="233.8" y1="380.9" x2="178.6" y2="354.6" stroke="#60A5FA" stroke-width="3.2" opacity="0.6" stroke-linecap="round"/>
  <line x1="233.8" y1="380.9" x2="227.5" y2="324.6" stroke="#60A5FA" stroke-width="3.2" opacity="0.6" stroke-linecap="round"/>
  <line x1="178.6" y1="354.6" x2="149.1" y2="315.9" stroke="#60A5FA" stroke-width="3.2" opacity="0.6" stroke-linecap="round"/>
  <line x1="178.6" y1="354.6" x2="227.5" y2="324.6" stroke="#60A5FA" stroke-width="3.2" opacity="0.6" stroke-linecap="round"/>
  <line x1="178.6" y1="354.6" x2="189.2" y2="294.8" stroke="#60A5FA" stroke-width="3.2" opacity="0.6" stroke-linecap="round"/>
  <line x1="149.1" y1="315.9" x2="128.8" y2="253.6" stroke="#60A5FA" stroke-width="3.2" opacity="0.6" stroke-linecap="round"/>
  <line x1="149.1" y1="315.9" x2="189.2" y2="294.8" stroke="#60A5FA" stroke-width="3.2" opacity="0.6" stroke-linecap="round"/>
  <line x1="149.1" y1="315.9" x2="178.2" y2="252.1" stroke="#60A5FA" stroke-width="3.2" opacity="0.6" stroke-linecap="round"/>
  <line x1="128.8" y1="253.6" x2="146.0" y2="200.2" stroke="#60A5FA" stroke-width="3.2" opacity="0.6" stroke-linecap="round"/>
  <line x1="128.8" y1="253.6" x2="178.2" y2="252.1" stroke="#60A5FA" stroke-width="3.2" opacity="0.6" stroke-linecap="round"/>
  <line x1="146.0" y1="200.2" x2="181.0" y2="161.8" stroke="#60A5FA" stroke-width="3.2" opacity="0.6" stroke-linecap="round"/>
  <line x1="146.0" y1="200.2" x2="178.2" y2="252.1" stroke="#60A5FA" stroke-width="3.2" opacity="0.6" stroke-linecap="round"/>
  <line x1="146.0" y1="200.2" x2="201.1" y2="210.9" stroke="#60A5FA" stroke-width="3.2" opacity="0.6" stroke-linecap="round"/>
  <line x1="181.0" y1="161.8" x2="236.8" y2="140.5" stroke="#60A5FA" stroke-width="3.2" opacity="0.6" stroke-linecap="round"/>
  <line x1="181.0" y1="161.8" x2="201.1" y2="210.9" stroke="#60A5FA" stroke-width="3.2" opacity="0.6" stroke-linecap="round"/>
  <line x1="181.0" y1="161.8" x2="235.5" y2="186.6" stroke="#60A5FA" stroke-width="3.2" opacity="0.6" stroke-linecap="round"/>
  <line x1="236.8" y1="140.5" x2="235.5" y2="186.6" stroke="#60A5FA" stroke-width="3.2" opacity="0.6" stroke-linecap="round"/>
  <line x1="227.5" y1="324.6" x2="189.2" y2="294.8" stroke="#60A5FA" stroke-width="3.2" opacity="0.6" stroke-linecap="round"/>
  <line x1="189.2" y1="294.8" x2="178.2" y2="252.1" stroke="#60A5FA" stroke-width="3.2" opacity="0.6" stroke-linecap="round"/>
  <line x1="189.2" y1="294.8" x2="201.1" y2="210.9" stroke="#60A5FA" stroke-width="3.2" opacity="0.6" stroke-linecap="round"/>
  <line x1="178.2" y1="252.1" x2="201.1" y2="210.9" stroke="#60A5FA" stroke-width="3.2" opacity="0.6" stroke-linecap="round"/>
  <line x1="201.1" y1="210.9" x2="235.5" y2="186.6" stroke="#60A5FA" stroke-width="3.2" opacity="0.6" stroke-linecap="round"/>
  <line x1="204.6" y1="101.1" x2="212" y2="112" stroke="#60A5FA" stroke-width="3.2" opacity="0.54" stroke-linecap="round"/>
  <line x1="233.8" y1="380.9" x2="236" y2="392" stroke="#60A5FA" stroke-width="3.2" opacity="0.54" stroke-linecap="round"/>
  <line x1="262.9" y1="48.5" x2="276" y2="66" stroke="#60A5FA" stroke-width="3.2" opacity="0.54" stroke-linecap="round"/>
  <circle cx="275.1" cy="474.7" r="7.2" fill="#93C5FD"/>
  <circle cx="208.0" cy="460.6" r="8.2" fill="#60A5FA"/>
  <circle cx="158.5" cy="452.4" r="7.8" fill="#93C5FD"/>
  <circle cx="112.5" cy="420.8" r="7.0" fill="#60A5FA"/>
  <circle cx="63.5" cy="348.4" r="6.8" fill="#60A5FA"/>
  <circle cx="50.2" cy="301.9" r="8.1" fill="#93C5FD"/>
  <circle cx="43.3" cy="241.0" r="8.3" fill="#60A5FA"/>
  <circle cx="58.4" cy="172.0" r="9.4" fill="#60A5FA"/>
  <circle cx="99.0" cy="104.6" r="8.4" fill="#93C5FD"/>
  <circle cx="138.9" cy="68.8" r="7.4" fill="#60A5FA"/>
  <circle cx="190.4" cy="57.3" r="9.4" fill="#93C5FD"/>
  <circle cx="262.9" cy="48.5" r="7.4" fill="#93C5FD"/>
  <circle cx="252.2" cy="424.2" r="11.0" fill="#BFDBFE"/>
  <circle cx="177.8" cy="411.3" r="6.3" fill="#93C5FD"/>
  <circle cx="127.1" cy="364.0" r="6.1" fill="#93C5FD"/>
  <circle cx="100.5" cy="309.6" r="4.3" fill="#93C5FD"/>
  <circle cx="92.3" cy="258.6" r="6.8" fill="#60A5FA"/>
  <circle cx="109.4" cy="182.8" r="5.9" fill="#93C5FD"/>
  <circle cx="144.0" cy="140.2" r="6.2" fill="#93C5FD"/>
  <circle cx="204.6" cy="101.1" r="4.7" fill="#60A5FA"/>
  <circle cx="253.4" cy="82.7" r="6.0" fill="#60A5FA"/>
  <circle cx="233.8" cy="380.9" r="6.5" fill="#60A5FA"/>
  <circle cx="178.6" cy="354.6" r="6.3" fill="#93C5FD"/>
  <circle cx="149.1" cy="315.9" r="9.8" fill="#BFDBFE"/>
  <circle cx="128.8" cy="253.6" r="5.2" fill="#60A5FA"/>
  <circle cx="146.0" cy="200.2" r="4.4" fill="#93C5FD"/>
  <circle cx="181.0" cy="161.8" r="4.9" fill="#60A5FA"/>
  <circle cx="236.8" cy="140.5" r="10.2" fill="#BFDBFE"/>
  <circle cx="227.5" cy="324.6" r="5.2" fill="#60A5FA"/>
  <circle cx="189.2" cy="294.8" r="4.6" fill="#60A5FA"/>
  <circle cx="178.2" cy="252.1" r="6.2" fill="#93C5FD"/>
  <circle cx="201.1" cy="210.9" r="5.7" fill="#60A5FA"/>
  <circle cx="235.5" cy="186.6" r="10.0" fill="#BFDBFE"/>
  <path d="M 293.61 421.28 L 289.01 415.80 L 284.13 411.99 L 279.34 408.48 L 274.67 405.06 L 270.12 401.68 L 265.70 398.30 L 261.42 394.89 L 257.27 391.44 L 253.25 387.96 L 249.38 384.42 L 245.64 380.83 L 242.05 377.20 L 238.60 373.51 L 235.29 369.78 L 231.47 366.83 L 227.75 363.77 L 224.15 360.62 L 220.67 357.37 L 217.30 354.03 L 214.05 350.60 L 210.92 347.09 L 207.92 343.50 L 205.04 339.84 L 202.29 336.10 L 199.66 332.30 L 197.17 328.44 L 194.81 324.51 L 192.58 320.54 L 190.49 316.51 L 188.53 312.44 L 186.71 308.33 L 185.02 304.18 L 183.47 300.00 L 182.06 295.79 L 180.78 291.56 L 179.64 287.31 L 178.64 283.04 L 177.78 278.77 L 177.05 274.49 L 176.46 270.20 L 176.01 265.92 L 175.69 261.65 L 175.50 257.39 L 175.45 253.15 L 175.53 248.92 L 175.75 244.72 L 176.09 240.54 L 176.56 236.40 L 177.15 232.29 L 177.87 228.23 L 178.72 224.20 L 179.68 220.22 L 180.77 216.30 L 181.97 212.42 L 183.28 208.60 L 184.71 204.85 L 186.25 201.15 L 187.89 197.53 L 189.64 193.97 L 191.49 190.49 L 193.44 187.08 L 195.48 183.75 L 197.62 180.51 L 199.85 177.34 L 202.17 174.27 L 204.56 171.28 L 207.04 168.38 L 209.60 165.57 L 212.23 162.86 L 214.93 160.25 L 217.70 157.73 L 220.53 155.32 L 223.43 153.00 L 226.37 150.79 L 229.38 148.68 L 232.43 146.68 L 235.53 144.78 L 238.66 142.99 L 241.84 141.31 L 245.06 139.74 L 248.30 138.28 L 251.57 136.92 L 254.87 135.68 L 258.18 134.55 L 261.52 133.52 L 264.86 132.61 L 268.22 131.81 L 271.58 131.11 L 274.94 130.53 L 278.31 130.05 L 281.66 129.68 L 285.02 129.42 L 288.35 129.27 L 291.68 129.22 L 294.99 129.27 L 298.27 129.43 L 301.53 129.69 L 304.77 130.05 L 307.97 130.51 L 311.14 131.07 L 314.27 131.72 L 317.36 132.47 L 320.41 133.31 L 323.42 134.24 L 326.38 135.26 L 329.29 136.37 L 332.14 137.56 L 334.94 138.83 L 337.69 140.19 L 340.37 141.62 L 342.99 143.12 L 345.55 144.70 L 348.04 146.35 L 350.47 148.06 L 352.82 149.85 L 355.10 151.69 L 357.31 153.59 L 359.45 155.55 L 361.51 157.57 L 363.50 159.64 L 365.40 161.75 L 367.23 163.91 L 368.98 166.12 L 370.64 168.36 L 372.22 170.64 L 373.73 172.96 L 375.14 175.31 L 376.48 177.68 L 377.73 180.09 L 378.89 182.51 L 379.97 184.96 L 380.97 187.42 L 381.88 189.89 L 382.71 192.38 L 383.45 194.87 L 384.11 197.37 L 384.69 199.88 L 385.18 202.38 L 385.59 204.88 L 385.92 207.38 L 386.17 209.87 L 386.33 212.34 L 386.42 214.81 L 386.43 217.25 L 386.36 219.68 L 386.21 222.09 L 385.99 224.48 L 385.70 226.84 L 385.33 229.17 L 384.89 231.47 L 384.38 233.74 L 383.81 235.98 L 383.17 238.18 L 382.46 240.34 L 381.69 242.47 L 380.86 244.55 L 379.97 246.59 L 379.03 248.58 L 378.03 250.53 L 376.97 252.43 L 376.52 254.68 L 375.99 256.93 L 375.37 259.15 L 374.68 261.36 L 373.91 263.55 L 373.05 265.71 L 372.12 267.84 L 371.11 269.94 L 370.02 272.00 L 368.85 274.03 L 367.62 276.02 L 366.31 277.96 L 364.92 279.85 L 363.47 281.70 L 361.96 283.49 L 360.37 285.23 L 358.73 286.91 L 357.02 288.53 L 355.25 290.08 L 353.43 291.57 L 351.55 292.99 L 349.62 294.34 L 347.65 295.61 L 345.62 296.82 L 343.56 297.94 L 341.45 298.98 L 339.31 299.94 L 337.14 300.82 L 334.94 301.61 L 332.71 302.32 L 330.46 302.94 L 328.20 303.46 L 325.92 303.89 L 323.63 304.22 L 321.33 304.46 L 319.04 304.60 L 316.75 304.63 L 314.47 304.55 L 312.22 304.35 L 310.00 304.00 L 310.00 304.00 L 312.15 304.66 L 314.33 305.35 L 316.55 306.01 L 318.80 306.64 L 321.11 307.23 L 323.45 307.77 L 325.84 308.26 L 328.28 308.70 L 330.76 309.07 L 333.28 309.38 L 335.85 309.61 L 338.46 309.78 L 341.10 309.87 L 343.78 309.89 L 346.50 309.82 L 349.25 309.66 L 352.03 309.42 L 354.84 309.10 L 357.68 308.67 L 360.53 308.16 L 363.41 307.54 L 366.30 306.83 L 369.20 306.02 L 372.11 305.10 L 375.03 304.08 L 377.95 302.95 L 380.87 301.71 L 383.79 300.37 L 386.69 298.91 L 389.58 297.34 L 392.46 295.66 L 395.31 293.87 L 398.13 291.96 L 400.93 289.94 L 403.69 287.81 L 406.41 285.55 L 409.09 283.19 L 411.72 280.71 L 414.30 278.12 L 416.82 275.41 L 418.59 272.23 L 420.26 268.97 L 421.84 265.65 L 423.32 262.26 L 424.69 258.82 L 425.96 255.31 L 427.12 251.75 L 428.17 248.14 L 429.11 244.48 L 429.94 240.78 L 430.65 237.03 L 431.25 233.25 L 431.72 229.44 L 432.08 225.59 L 432.31 221.72 L 432.42 217.83 L 432.41 213.92 L 432.27 209.99 L 432.01 206.05 L 431.62 202.11 L 431.10 198.16 L 430.45 194.22 L 429.68 190.28 L 428.77 186.36 L 427.74 182.44 L 426.58 178.55 L 425.29 174.67 L 423.88 170.83 L 422.33 167.01 L 420.66 163.24 L 418.86 159.50 L 416.94 155.80 L 414.89 152.15 L 412.72 148.56 L 410.42 145.02 L 408.01 141.54 L 405.48 138.12 L 402.83 134.78 L 400.06 131.51 L 397.18 128.31 L 394.19 125.19 L 391.09 122.16 L 387.88 119.21 L 384.56 116.36 L 381.15 113.60 L 377.63 110.94 L 374.02 108.39 L 370.32 105.94 L 366.52 103.60 L 362.64 101.37 L 358.68 99.25 L 354.63 97.26 L 350.51 95.39 L 346.31 93.64 L 342.05 92.01 L 337.72 90.52 L 333.33 89.16 L 328.88 87.94 L 324.37 86.85 L 319.82 85.90 L 315.23 85.09 L 310.59 84.42 L 305.91 83.90 L 301.21 83.52 L 296.48 83.30 L 291.72 83.22 L 286.95 83.29 L 282.16 83.51 L 277.37 83.88 L 272.57 84.41 L 267.77 85.09 L 262.98 85.92 L 258.21 86.91 L 253.44 88.05 L 248.70 89.34 L 243.99 90.79 L 239.30 92.39 L 234.65 94.15 L 230.05 96.05 L 225.48 98.11 L 220.97 100.32 L 216.52 102.68 L 212.12 105.18 L 207.80 107.83 L 203.54 110.62 L 199.35 113.56 L 195.25 116.64 L 191.23 119.86 L 187.30 123.21 L 183.46 126.70 L 179.73 130.31 L 176.09 134.06 L 172.56 137.93 L 169.15 141.93 L 165.84 146.04 L 162.66 150.27 L 159.60 154.61 L 156.67 159.06 L 153.87 163.62 L 151.21 168.28 L 148.68 173.03 L 146.30 177.88 L 144.06 182.82 L 141.97 187.84 L 140.03 192.94 L 138.25 198.12 L 136.62 203.37 L 135.15 208.68 L 133.85 214.06 L 132.71 219.49 L 131.74 224.98 L 130.94 230.51 L 130.30 236.08 L 129.85 241.69 L 129.56 247.32 L 129.45 252.98 L 129.52 258.67 L 129.77 264.36 L 130.19 270.07 L 130.80 275.77 L 131.58 281.48 L 132.55 287.17 L 133.70 292.85 L 135.03 298.51 L 136.54 304.15 L 138.23 309.75 L 140.10 315.32 L 142.14 320.84 L 144.37 326.32 L 146.77 331.74 L 149.35 337.10 L 152.11 342.39 L 155.03 347.62 L 158.13 352.77 L 161.40 357.83 L 164.83 362.81 L 168.43 367.69 L 172.19 372.48 L 176.11 377.16 L 180.18 381.73 L 184.41 386.19 L 188.79 390.53 L 193.32 394.75 L 197.99 398.84 L 202.79 402.80 L 207.74 406.61 L 213.43 409.40 L 219.21 411.98 L 225.08 414.35 L 231.02 416.50 L 237.03 418.42 L 243.10 420.11 L 249.22 421.55 L 255.40 422.74 L 261.61 423.65 L 267.87 424.27 L 274.16 424.56 L 280.48 424.45 L 286.85 423.79 L 293.61 421.28 Z" fill="#1D4ED8"/>
  <path d="M 212.42 331.58 L 211.88 327.24 L 210.71 323.42 L 209.50 319.73 L 208.31 316.11 L 207.17 312.52 L 206.09 308.97 L 205.09 305.44 L 204.18 301.93 L 203.34 298.44 L 202.59 294.97 L 201.93 291.51 L 201.36 288.07 L 200.87 284.66 L 200.48 281.26 L 200.17 277.88 L 199.95 274.53 L 199.82 271.20 L 199.78 267.90 L 199.36 264.68 L 199.03 261.47 L 198.79 258.26 L 198.65 255.06 L 198.59 251.88 L 198.62 248.70 L 198.74 245.55 L 198.95 242.41 L 199.25 239.29 L 199.63 236.20 L 200.09 233.13 L 200.64 230.09 L 201.27 227.08 L 201.98 224.10 L 202.78 221.15 L 203.65 218.24 L 204.59 215.37 L 205.62 212.55 L 206.72 209.76 L 207.89 207.02 L 209.13 204.32 L 210.44 201.67 L 211.82 199.07 L 213.27 196.53 L 214.78 194.03 L 216.35 191.59 L 217.99 189.21 L 219.68 186.89 L 221.43 184.62 L 223.24 182.41 L 225.09 180.27 L 227.00 178.19 L 228.96 176.17 L 230.97 174.22 L 233.02 172.34 L 235.11 170.52 L 237.24 168.77 L 239.42 167.09 L 241.63 165.48 L 243.87 163.94 L 246.14 162.47 L 248.45 161.07 L 250.78 159.74 L 253.14 158.49 L 255.52 157.31 L 257.92 156.20 L 260.34 155.17 L 262.78 154.21 L 265.23 153.32 L 267.69 152.51 L 270.17 151.78 L 272.65 151.11 L 275.13 150.52 L 277.62 150.00 L 280.12 149.56 L 282.61 149.19 L 285.10 148.89 L 287.58 148.67 L 290.05 148.51 L 292.52 148.43 L 294.98 148.41 L 297.42 148.47 L 299.85 148.59 L 302.26 148.79 L 304.65 149.05 L 307.02 149.37 L 309.37 149.77 L 311.70 150.22 L 314.00 150.74 L 316.27 151.32 L 318.51 151.97 L 320.72 152.67 L 322.90 153.43 L 325.04 154.25 L 327.15 155.13 L 329.22 156.06 L 331.25 157.04 L 333.25 158.08 L 335.20 159.16 L 337.11 160.30 L 338.97 161.48 L 340.79 162.71 L 342.57 163.98 L 344.30 165.30 L 345.98 166.66 L 347.61 168.05 L 349.19 169.49 L 350.73 170.96 L 352.21 172.47 L 353.63 174.01 L 355.01 175.58 L 356.33 177.18 L 357.60 178.80 L 358.82 180.46 L 359.98 182.14 L 361.08 183.84 L 362.13 185.56 L 363.12 187.30 L 364.06 189.05 L 364.94 190.83 L 365.76 192.61 L 366.53 194.41 L 367.24 196.22 L 367.90 198.04 L 368.50 199.86 L 369.04 201.69 L 369.53 203.52 L 369.96 205.35 L 370.33 207.19 L 370.65 209.02 L 370.92 210.85 L 371.13 212.67 L 371.29 214.49 L 371.39 216.29 L 371.45 218.09 L 371.45 219.88 L 371.39 221.66 L 371.29 223.42 L 371.14 225.16 L 370.94 226.89 L 370.69 228.60 L 370.39 230.29 L 370.05 231.96 L 369.66 233.61 L 369.23 235.24 L 368.75 236.83 L 368.23 238.41 L 367.67 239.96 L 367.07 241.48 L 366.43 242.97 L 365.75 244.43 L 365.04 245.86 L 364.29 247.25 L 363.50 248.62 L 362.68 249.95 L 361.83 251.25 L 360.95 252.51 L 360.04 253.74 L 359.41 255.18 L 358.74 256.60 L 358.02 257.99 L 357.26 259.37 L 356.45 260.71 L 355.61 262.03 L 354.73 263.33 L 353.80 264.59 L 352.84 265.82 L 351.84 267.02 L 350.81 268.19 L 349.74 269.32 L 348.63 270.41 L 347.49 271.47 L 346.33 272.49 L 345.13 273.47 L 343.90 274.41 L 342.65 275.31 L 341.37 276.17 L 340.06 276.98 L 338.73 277.75 L 337.38 278.48 L 336.01 279.16 L 334.62 279.79 L 333.22 280.38 L 331.80 280.92 L 330.36 281.41 L 328.92 281.85 L 327.46 282.24 L 326.00 282.58 L 324.53 282.87 L 323.06 283.11 L 321.58 283.30 L 320.10 283.44 L 318.63 283.52 L 317.15 283.55 L 315.69 283.53 L 314.23 283.46 L 312.78 283.33 L 311.35 283.15 L 309.93 282.91 L 308.53 282.61 L 307.16 282.26 L 305.82 281.82 L 305.82 281.82 L 307.10 282.40 L 308.40 282.99 L 309.73 283.57 L 311.08 284.14 L 312.46 284.67 L 313.87 285.19 L 315.31 285.67 L 316.78 286.13 L 318.27 286.55 L 319.80 286.94 L 321.35 287.30 L 322.94 287.61 L 324.55 287.89 L 326.18 288.12 L 327.85 288.31 L 329.53 288.46 L 331.25 288.55 L 332.98 288.61 L 334.73 288.61 L 336.51 288.56 L 338.30 288.46 L 340.11 288.31 L 341.94 288.10 L 343.78 287.83 L 345.63 287.51 L 347.50 287.14 L 349.37 286.70 L 351.25 286.20 L 353.14 285.64 L 355.03 285.02 L 356.92 284.34 L 358.81 283.59 L 360.70 282.78 L 362.58 281.91 L 364.46 280.97 L 366.32 279.96 L 368.18 278.89 L 370.03 277.76 L 371.86 276.55 L 373.67 275.28 L 375.46 273.95 L 377.23 272.54 L 378.97 271.07 L 380.69 269.54 L 382.05 267.70 L 383.37 265.82 L 384.63 263.89 L 385.85 261.91 L 387.01 259.89 L 388.12 257.82 L 389.17 255.72 L 390.17 253.57 L 391.11 251.39 L 391.99 249.17 L 392.81 246.91 L 393.56 244.62 L 394.25 242.30 L 394.88 239.94 L 395.44 237.56 L 395.94 235.15 L 396.36 232.72 L 396.72 230.26 L 397.01 227.79 L 397.22 225.29 L 397.37 222.78 L 397.44 220.26 L 397.44 217.72 L 397.37 215.17 L 397.22 212.61 L 397.00 210.04 L 396.70 207.47 L 396.33 204.90 L 395.88 202.33 L 395.35 199.77 L 394.75 197.20 L 394.07 194.65 L 393.31 192.10 L 392.48 189.57 L 391.57 187.05 L 390.59 184.54 L 389.52 182.06 L 388.39 179.59 L 387.17 177.15 L 385.89 174.73 L 384.52 172.35 L 383.09 169.99 L 381.57 167.66 L 379.99 165.37 L 378.33 163.12 L 376.61 160.90 L 374.81 158.72 L 372.94 156.59 L 371.01 154.51 L 369.00 152.47 L 366.94 150.48 L 364.80 148.55 L 362.60 146.67 L 360.34 144.84 L 358.02 143.07 L 355.64 141.37 L 353.21 139.72 L 350.71 138.14 L 348.16 136.63 L 345.56 135.18 L 342.91 133.80 L 340.21 132.49 L 337.46 131.26 L 334.67 130.10 L 331.83 129.01 L 328.95 128.01 L 326.03 127.08 L 323.08 126.23 L 320.09 125.47 L 317.07 124.78 L 314.02 124.18 L 310.94 123.67 L 307.83 123.24 L 304.70 122.90 L 301.55 122.65 L 298.39 122.49 L 295.20 122.41 L 292.01 122.43 L 288.80 122.54 L 285.59 122.74 L 282.37 123.04 L 279.14 123.42 L 275.92 123.90 L 272.70 124.47 L 269.49 125.14 L 266.28 125.90 L 263.09 126.76 L 259.91 127.71 L 256.74 128.75 L 253.60 129.88 L 250.47 131.11 L 247.37 132.44 L 244.30 133.85 L 241.26 135.36 L 238.25 136.96 L 235.28 138.65 L 232.34 140.43 L 229.45 142.30 L 226.60 144.26 L 223.80 146.30 L 221.04 148.43 L 218.34 150.65 L 215.69 152.95 L 213.10 155.33 L 210.57 157.80 L 208.10 160.34 L 205.69 162.96 L 203.35 165.66 L 201.08 168.44 L 198.88 171.29 L 196.75 174.21 L 194.70 177.19 L 192.73 180.25 L 190.84 183.37 L 189.03 186.56 L 187.31 189.80 L 185.67 193.11 L 184.12 196.47 L 182.66 199.89 L 181.30 203.35 L 180.02 206.87 L 178.85 210.44 L 177.77 214.05 L 176.78 217.70 L 175.90 221.39 L 175.12 225.11 L 174.44 228.87 L 173.87 232.66 L 173.40 236.48 L 173.03 240.33 L 172.78 244.19 L 172.63 248.08 L 172.59 251.98 L 172.66 255.89 L 172.84 259.82 L 173.13 263.75 L 173.53 267.68 L 174.04 271.62 L 175.14 275.47 L 176.34 279.29 L 177.67 283.08 L 179.11 286.82 L 180.66 290.52 L 182.33 294.16 L 184.12 297.76 L 186.02 301.30 L 188.03 304.77 L 190.16 308.18 L 192.40 311.51 L 194.76 314.77 L 197.24 317.94 L 199.84 321.01 L 202.58 323.97 L 205.48 326.81 L 208.58 329.45 L 212.42 331.58 Z" fill="#3B82F6"/>
  <path d="M 220.99 269.96 L 221.57 267.40 L 221.75 264.94 L 221.87 262.54 L 222.00 260.17 L 222.15 257.83 L 222.32 255.52 L 222.53 253.23 L 222.78 250.97 L 223.07 248.73 L 223.40 246.52 L 223.77 244.33 L 224.19 242.17 L 224.64 240.04 L 225.15 237.93 L 225.69 235.85 L 226.28 233.80 L 226.91 231.78 L 227.58 229.79 L 228.30 227.83 L 229.05 225.91 L 229.84 224.01 L 230.68 222.15 L 231.34 220.25 L 232.05 218.37 L 232.80 216.52 L 233.59 214.69 L 234.43 212.90 L 235.30 211.13 L 236.22 209.40 L 237.17 207.69 L 238.17 206.02 L 239.20 204.38 L 240.26 202.78 L 241.36 201.20 L 242.50 199.67 L 243.67 198.17 L 244.87 196.70 L 246.10 195.27 L 247.36 193.88 L 248.65 192.53 L 249.96 191.22 L 251.31 189.95 L 252.68 188.71 L 254.07 187.52 L 255.49 186.37 L 256.93 185.26 L 258.39 184.19 L 259.87 183.16 L 261.37 182.18 L 262.88 181.24 L 264.42 180.34 L 265.96 179.48 L 267.52 178.67 L 269.10 177.90 L 270.68 177.17 L 272.28 176.49 L 273.88 175.85 L 275.50 175.25 L 277.12 174.70 L 278.74 174.19 L 280.37 173.73 L 282.01 173.31 L 283.64 172.93 L 285.28 172.60 L 286.92 172.31 L 288.56 172.06 L 290.19 171.85 L 291.82 171.69 L 293.45 171.57 L 295.07 171.49 L 296.69 171.45 L 298.29 171.45 L 299.89 171.50 L 301.48 171.58 L 303.06 171.71 L 304.63 171.87 L 306.18 172.07 L 307.72 172.32 L 309.25 172.59 L 310.76 172.91 L 312.26 173.26 L 313.73 173.65 L 315.19 174.08 L 316.64 174.53 L 318.06 175.03 L 319.46 175.55 L 320.84 176.11 L 322.20 176.70 L 323.53 177.33 L 324.85 177.98 L 326.13 178.66 L 327.40 179.37 L 328.64 180.11 L 329.85 180.88 L 331.04 181.68 L 332.19 182.49 L 333.33 183.34 L 334.43 184.21 L 335.50 185.10 L 336.55 186.01 L 337.57 186.95 L 338.55 187.90 L 339.51 188.88 L 340.43 189.87 L 341.33 190.88 L 342.19 191.91 L 343.02 192.95 L 343.82 194.01 L 344.59 195.09 L 345.33 196.17 L 346.03 197.27 L 346.70 198.38 L 347.34 199.50 L 347.95 200.63 L 348.52 201.77 L 349.06 202.91 L 349.57 204.06 L 350.04 205.22 L 350.48 206.38 L 350.89 207.55 L 351.27 208.72 L 351.61 209.89 L 351.92 211.06 L 352.20 212.23 L 352.45 213.41 L 352.66 214.58 L 352.85 215.75 L 353.00 216.91 L 353.12 218.07 L 353.21 219.23 L 353.27 220.38 L 353.30 221.53 L 353.30 222.66 L 353.27 223.79 L 353.21 224.91 L 353.12 226.03 L 353.01 227.13 L 352.87 228.22 L 352.70 229.30 L 352.50 230.36 L 352.28 231.42 L 352.03 232.46 L 351.75 233.49 L 351.45 234.50 L 351.13 235.50 L 350.78 236.48 L 350.41 237.44 L 350.02 238.39 L 349.61 239.32 L 349.17 240.23 L 348.72 241.13 L 348.24 242.00 L 347.93 242.96 L 347.59 243.92 L 347.22 244.86 L 346.83 245.79 L 346.42 246.70 L 345.98 247.60 L 345.52 248.49 L 345.04 249.36 L 344.53 250.22 L 344.00 251.06 L 343.45 251.88 L 342.87 252.68 L 342.28 253.47 L 341.66 254.23 L 341.03 254.98 L 340.38 255.71 L 339.71 256.41 L 339.02 257.10 L 338.31 257.76 L 337.59 258.40 L 336.85 259.02 L 336.10 259.62 L 335.33 260.19 L 334.55 260.74 L 333.76 261.26 L 332.95 261.76 L 332.13 262.23 L 331.30 262.68 L 330.47 263.10 L 329.62 263.49 L 328.76 263.86 L 327.90 264.20 L 327.03 264.52 L 326.16 264.80 L 325.28 265.06 L 324.40 265.29 L 323.52 265.50 L 322.63 265.67 L 321.74 265.82 L 320.85 265.93 L 319.97 266.02 L 319.08 266.08 L 318.20 266.11 L 317.33 266.11 L 316.46 266.07 L 315.59 266.01 L 314.74 265.91 L 313.90 265.76 L 313.90 265.76 L 314.72 265.99 L 315.56 266.21 L 316.40 266.42 L 317.26 266.63 L 318.14 266.81 L 319.02 266.98 L 319.92 267.14 L 320.84 267.27 L 321.77 267.38 L 322.71 267.48 L 323.66 267.55 L 324.63 267.59 L 325.60 267.62 L 326.59 267.61 L 327.59 267.59 L 328.60 267.54 L 329.62 267.46 L 330.65 267.35 L 331.68 267.22 L 332.73 267.05 L 333.78 266.86 L 334.83 266.64 L 335.90 266.39 L 336.96 266.10 L 338.03 265.79 L 339.10 265.44 L 340.18 265.07 L 341.25 264.66 L 342.32 264.21 L 343.40 263.74 L 344.47 263.23 L 345.53 262.69 L 346.60 262.11 L 347.66 261.50 L 348.71 260.85 L 349.75 260.17 L 350.79 259.46 L 351.82 258.71 L 352.83 257.93 L 353.84 257.11 L 354.83 256.26 L 355.81 255.37 L 356.77 254.45 L 357.72 253.49 L 358.65 252.50 L 359.56 251.48 L 360.46 250.42 L 361.33 249.33 L 361.99 248.11 L 362.63 246.86 L 363.23 245.59 L 363.81 244.30 L 364.35 242.99 L 364.86 241.66 L 365.34 240.31 L 365.78 238.94 L 366.19 237.55 L 366.57 236.14 L 366.91 234.72 L 367.21 233.28 L 367.48 231.83 L 367.71 230.36 L 367.91 228.88 L 368.06 227.39 L 368.18 225.89 L 368.26 224.38 L 368.30 222.86 L 368.30 221.33 L 368.26 219.80 L 368.18 218.26 L 368.06 216.71 L 367.90 215.16 L 367.69 213.61 L 367.45 212.06 L 367.16 210.50 L 366.84 208.95 L 366.47 207.40 L 366.06 205.85 L 365.60 204.31 L 365.11 202.77 L 364.57 201.24 L 363.99 199.71 L 363.37 198.19 L 362.71 196.69 L 362.00 195.19 L 361.25 193.71 L 360.47 192.24 L 359.64 190.78 L 358.76 189.34 L 357.85 187.92 L 356.90 186.51 L 355.91 185.13 L 354.87 183.76 L 353.80 182.41 L 352.69 181.09 L 351.54 179.79 L 350.35 178.51 L 349.13 177.26 L 347.86 176.04 L 346.56 174.84 L 345.23 173.68 L 343.86 172.54 L 342.45 171.43 L 341.01 170.36 L 339.54 169.32 L 338.03 168.31 L 336.49 167.34 L 334.93 166.40 L 333.33 165.50 L 331.70 164.64 L 330.04 163.81 L 328.36 163.03 L 326.65 162.28 L 324.91 161.58 L 323.15 160.92 L 321.37 160.30 L 319.56 159.73 L 317.73 159.19 L 315.89 158.71 L 314.02 158.27 L 312.13 157.87 L 310.23 157.53 L 308.31 157.23 L 306.37 156.97 L 304.43 156.77 L 302.47 156.62 L 300.50 156.51 L 298.52 156.46 L 296.53 156.45 L 294.53 156.50 L 292.53 156.60 L 290.52 156.75 L 288.51 156.95 L 286.50 157.20 L 284.48 157.50 L 282.47 157.86 L 280.46 158.27 L 278.45 158.74 L 276.45 159.25 L 274.45 159.82 L 272.46 160.44 L 270.48 161.12 L 268.51 161.84 L 266.55 162.62 L 264.61 163.45 L 262.68 164.34 L 260.76 165.28 L 258.86 166.27 L 256.98 167.31 L 255.13 168.40 L 253.29 169.54 L 251.47 170.73 L 249.68 171.98 L 247.91 173.27 L 246.18 174.61 L 244.46 176.00 L 242.78 177.44 L 241.13 178.93 L 239.51 180.46 L 237.93 182.04 L 236.38 183.67 L 234.86 185.34 L 233.38 187.05 L 231.94 188.81 L 230.54 190.60 L 229.19 192.44 L 227.87 194.33 L 226.59 196.25 L 225.36 198.20 L 224.18 200.20 L 223.04 202.23 L 221.95 204.30 L 220.91 206.40 L 219.91 208.54 L 218.97 210.71 L 218.08 212.90 L 217.24 215.13 L 216.45 217.39 L 215.93 219.74 L 215.47 222.10 L 215.08 224.48 L 214.75 226.87 L 214.48 229.28 L 214.27 231.69 L 214.13 234.11 L 214.05 236.54 L 214.04 238.97 L 214.10 241.41 L 214.22 243.84 L 214.42 246.28 L 214.68 248.71 L 215.01 251.13 L 215.41 253.55 L 215.89 255.96 L 216.44 258.35 L 217.08 260.74 L 217.80 263.10 L 218.63 265.43 L 219.59 267.73 L 220.99 269.96 Z" fill="#60A5FA"/>
  <path d="M 252.22 228.94 L 253.14 227.92 L 253.85 226.84 L 254.52 225.77 L 255.18 224.71 L 255.84 223.67 L 256.50 222.64 L 257.17 221.64 L 257.85 220.65 L 258.53 219.68 L 259.23 218.73 L 259.93 217.80 L 260.65 216.89 L 261.38 216.01 L 262.12 215.14 L 262.87 214.29 L 263.63 213.47 L 264.40 212.67 L 265.18 211.89 L 265.97 211.13 L 266.77 210.39 L 267.57 209.67 L 268.39 208.98 L 269.22 208.31 L 270.05 207.66 L 270.89 207.03 L 271.73 206.42 L 272.59 205.84 L 273.44 205.28 L 274.25 204.66 L 275.06 204.07 L 275.89 203.49 L 276.72 202.94 L 277.55 202.40 L 278.40 201.89 L 279.25 201.40 L 280.11 200.93 L 280.97 200.49 L 281.84 200.06 L 282.71 199.65 L 283.59 199.27 L 284.47 198.91 L 285.35 198.57 L 286.24 198.25 L 287.12 197.95 L 288.01 197.67 L 288.90 197.41 L 289.79 197.18 L 290.69 196.96 L 291.58 196.77 L 292.47 196.60 L 293.36 196.45 L 294.24 196.31 L 295.13 196.20 L 296.01 196.11 L 296.89 196.04 L 297.77 195.99 L 298.64 195.96 L 299.50 195.94 L 300.37 195.95 L 301.22 195.98 L 302.08 196.02 L 302.92 196.09 L 303.76 196.17 L 304.59 196.27 L 305.42 196.39 L 306.23 196.52 L 307.04 196.67 L 307.85 196.84 L 308.64 197.03 L 309.42 197.23 L 310.20 197.45 L 310.96 197.69 L 311.71 197.94 L 312.46 198.21 L 313.19 198.49 L 313.91 198.78 L 314.62 199.10 L 315.32 199.42 L 316.01 199.76 L 316.69 200.11 L 317.35 200.47 L 318.00 200.85 L 318.64 201.24 L 319.27 201.64 L 319.88 202.05 L 320.48 202.47 L 321.07 202.91 L 321.64 203.35 L 322.20 203.81 L 322.74 204.27 L 323.27 204.74 L 323.79 205.22 L 324.29 205.71 L 324.77 206.21 L 325.25 206.72 L 325.70 207.23 L 326.15 207.75 L 326.57 208.27 L 326.99 208.81 L 327.39 209.34 L 327.77 209.89 L 328.14 210.43 L 328.49 210.98 L 328.82 211.54 L 329.15 212.10 L 329.45 212.66 L 329.75 213.23 L 330.02 213.80 L 330.28 214.37 L 330.53 214.94 L 330.76 215.51 L 330.98 216.08 L 331.18 216.66 L 331.37 217.23 L 331.54 217.81 L 331.70 218.38 L 331.84 218.96 L 331.97 219.53 L 332.08 220.10 L 332.18 220.67 L 332.27 221.23 L 332.34 221.79 L 332.40 222.36 L 332.45 222.91 L 332.48 223.47 L 332.50 224.02 L 332.50 224.56 L 332.50 225.10 L 332.48 225.64 L 332.44 226.17 L 332.40 226.69 L 332.34 227.21 L 332.28 227.73 L 332.20 228.24 L 332.11 228.74 L 332.00 229.23 L 331.89 229.72 L 331.77 230.20 L 331.64 230.68 L 331.49 231.14 L 331.34 231.60 L 331.18 232.05 L 331.01 232.49 L 330.83 232.92 L 330.73 233.39 L 330.62 233.85 L 330.50 234.31 L 330.38 234.77 L 330.24 235.21 L 330.09 235.66 L 329.93 236.09 L 329.76 236.52 L 329.58 236.95 L 329.39 237.36 L 329.19 237.78 L 328.98 238.18 L 328.76 238.58 L 328.53 238.96 L 328.30 239.34 L 328.05 239.72 L 327.80 240.08 L 327.54 240.44 L 327.27 240.79 L 326.99 241.13 L 326.71 241.46 L 326.42 241.78 L 326.12 242.09 L 325.82 242.39 L 325.51 242.68 L 325.19 242.97 L 324.87 243.24 L 324.54 243.50 L 324.21 243.75 L 323.87 243.99 L 323.53 244.22 L 323.18 244.44 L 322.83 244.65 L 322.47 244.85 L 322.12 245.04 L 321.75 245.21 L 321.39 245.38 L 321.02 245.53 L 320.66 245.67 L 320.29 245.80 L 319.91 245.92 L 319.54 246.03 L 319.17 246.12 L 318.79 246.20 L 318.42 246.27 L 318.05 246.33 L 317.68 246.38 L 317.30 246.41 L 316.94 246.44 L 316.57 246.44 L 316.20 246.44 L 315.84 246.42 L 315.49 246.39 L 315.13 246.35 L 314.79 246.29 L 314.45 246.22 L 314.45 246.22 L 314.78 246.33 L 315.11 246.44 L 315.45 246.55 L 315.80 246.66 L 316.16 246.76 L 316.52 246.86 L 316.89 246.95 L 317.27 247.03 L 317.65 247.10 L 318.04 247.16 L 318.44 247.22 L 318.84 247.27 L 319.25 247.30 L 319.67 247.33 L 320.09 247.35 L 320.52 247.35 L 320.96 247.35 L 321.40 247.33 L 321.85 247.30 L 322.30 247.26 L 322.75 247.21 L 323.21 247.14 L 323.68 247.07 L 324.14 246.97 L 324.61 246.87 L 325.09 246.75 L 325.57 246.62 L 326.04 246.48 L 326.52 246.32 L 327.01 246.14 L 327.49 245.95 L 327.97 245.75 L 328.46 245.53 L 328.94 245.30 L 329.42 245.05 L 329.91 244.79 L 330.39 244.51 L 330.87 244.22 L 331.34 243.91 L 331.82 243.59 L 332.29 243.25 L 332.75 242.89 L 333.22 242.52 L 333.67 242.13 L 334.13 241.73 L 334.57 241.31 L 335.01 240.88 L 335.45 240.43 L 335.88 239.96 L 336.30 239.48 L 336.71 238.99 L 337.11 238.48 L 337.51 237.95 L 337.89 237.41 L 338.27 236.85 L 338.63 236.28 L 338.89 235.66 L 339.14 235.03 L 339.37 234.39 L 339.59 233.73 L 339.79 233.07 L 339.98 232.40 L 340.15 231.73 L 340.31 231.04 L 340.45 230.35 L 340.58 229.65 L 340.69 228.94 L 340.78 228.23 L 340.86 227.51 L 340.92 226.78 L 340.97 226.05 L 340.99 225.31 L 341.00 224.57 L 341.00 223.82 L 340.97 223.08 L 340.93 222.32 L 340.86 221.57 L 340.78 220.81 L 340.69 220.05 L 340.57 219.28 L 340.44 218.52 L 340.28 217.76 L 340.11 216.99 L 339.92 216.23 L 339.71 215.46 L 339.48 214.70 L 339.23 213.94 L 338.97 213.18 L 338.68 212.42 L 338.37 211.66 L 338.05 210.91 L 337.71 210.16 L 337.34 209.42 L 336.96 208.68 L 336.56 207.94 L 336.14 207.21 L 335.70 206.49 L 335.25 205.78 L 334.77 205.07 L 334.27 204.36 L 333.76 203.67 L 333.23 202.99 L 332.68 202.31 L 332.11 201.64 L 331.52 200.98 L 330.92 200.34 L 330.30 199.70 L 329.66 199.08 L 329.00 198.46 L 328.33 197.86 L 327.63 197.27 L 326.93 196.70 L 326.20 196.13 L 325.46 195.59 L 324.70 195.05 L 323.93 194.53 L 323.14 194.03 L 322.34 193.54 L 321.52 193.07 L 320.69 192.61 L 319.84 192.17 L 318.98 191.75 L 318.11 191.34 L 317.22 190.96 L 316.32 190.59 L 315.41 190.24 L 314.49 189.91 L 313.55 189.60 L 312.61 189.30 L 311.65 189.03 L 310.68 188.78 L 309.70 188.55 L 308.72 188.34 L 307.72 188.15 L 306.71 187.99 L 305.70 187.84 L 304.68 187.72 L 303.65 187.62 L 302.62 187.54 L 301.58 187.48 L 300.53 187.45 L 299.48 187.44 L 298.42 187.46 L 297.36 187.50 L 296.30 187.56 L 295.23 187.65 L 294.16 187.76 L 293.09 187.89 L 292.01 188.05 L 290.94 188.24 L 289.86 188.45 L 288.79 188.68 L 287.71 188.94 L 286.64 189.22 L 285.57 189.53 L 284.50 189.86 L 283.44 190.22 L 282.37 190.60 L 281.32 191.01 L 280.26 191.45 L 279.22 191.91 L 278.17 192.39 L 277.14 192.90 L 276.11 193.43 L 275.09 193.99 L 274.08 194.57 L 273.07 195.18 L 272.08 195.82 L 271.09 196.47 L 270.12 197.15 L 269.15 197.86 L 268.20 198.59 L 267.32 199.42 L 266.46 200.27 L 265.62 201.14 L 264.80 202.04 L 263.99 202.95 L 263.20 203.89 L 262.44 204.84 L 261.69 205.82 L 260.96 206.81 L 260.26 207.83 L 259.57 208.86 L 258.91 209.91 L 258.28 210.98 L 257.66 212.06 L 257.07 213.16 L 256.51 214.28 L 255.97 215.42 L 255.45 216.57 L 254.96 217.73 L 254.51 218.91 L 254.08 220.10 L 253.68 221.31 L 253.31 222.53 L 252.97 223.77 L 252.67 225.02 L 252.42 226.29 L 252.23 227.57 L 252.22 228.94 Z" fill="#93C5FD"/>
  <path d="M 180.57 143.37 L 182.14 141.98 L 183.64 140.54 L 185.13 139.11 L 186.63 137.68 L 188.14 136.27 L 189.65 134.88 L 191.18 133.51 L 192.72 132.15 L 194.27 130.82 L 195.83 129.50 L 197.40 128.21 L 198.99 126.93 L 200.58 125.68 L 202.19 124.45 L 203.81 123.24 L 205.45 122.05 L 207.09 120.89 L 208.75 119.74 L 210.41 118.62 L 212.09 117.53 L 213.78 116.45 L 215.48 115.40 L 217.19 114.37 L 218.91 113.36 L 220.64 112.38 L 222.38 111.42 L 224.12 110.49 L 225.88 109.58 L 227.65 108.69 L 229.42 107.83 L 231.20 106.99 L 232.99 106.17 L 234.78 105.38 L 236.59 104.62 L 238.40 103.88 L 240.21 103.16 L 242.04 102.47 L 243.87 101.80 L 245.70 101.15 L 247.54 100.54 L 249.38 99.94 L 251.23 99.37 L 253.09 98.83 L 254.94 98.31 L 256.80 97.81 L 258.67 97.34 L 260.54 96.90 L 262.41 96.48 L 264.28 96.08 L 266.15 95.71 L 268.03 95.36 L 269.91 95.04 L 271.78 94.75 L 273.66 94.48 L 275.54 94.23 L 277.42 94.01 L 279.30 93.78 L 281.18 93.58 L 283.05 93.41 L 284.93 93.26 L 286.80 93.13 L 288.68 93.03 L 290.55 92.95 L 292.42 92.90 L 294.29 92.87 L 296.16 92.87 L 298.02 92.89 L 299.88 92.93 L 301.74 93.00 L 303.60 93.10 L 305.45 93.22 L 307.29 93.36 L 309.14 93.52 L 310.97 93.71 L 312.80 93.93 L 314.63 94.17 L 316.45 94.43 L 318.27 94.71 L 320.08 95.02 L 321.88 95.35 L 323.67 95.71 L 325.46 96.08 L 327.24 96.48 L 329.01 96.91 L 330.78 97.35 L 332.53 97.82 L 334.28 98.31 L 336.02 98.82 L 337.75 99.36 L 339.47 99.91 L 341.18 100.49 L 342.88 101.09 L 344.57 101.71 L 346.24 102.36 L 347.91 103.02 L 349.57 103.71 L 351.21 104.41 L 352.85 105.14 L 354.47 105.88 L 356.08 106.65 L 357.68 107.44 L 359.26 108.24 L 360.83 109.07 L 362.39 109.92 L 363.94 110.78 L 365.47 111.66 L 366.99 112.57 L 368.49 113.49 L 369.98 114.43 L 371.46 115.39 L 372.92 116.36 L 374.36 117.36 L 375.79 118.37 L 377.21 119.40 L 378.61 120.44 L 379.99 121.50 L 381.36 122.58 L 382.71 123.68 L 384.05 124.79 L 385.36 125.92 L 386.67 127.06 L 387.95 128.22 L 389.22 129.40 L 390.47 130.58 L 391.70 131.79 L 392.92 133.01 L 394.12 134.24 L 395.30 135.48 L 396.46 136.74 L 397.60 138.02 L 398.72 139.30 L 399.83 140.60 L 400.96 141.88 L 402.06 143.18 L 403.15 144.49 L 404.22 145.81 L 405.28 147.14 L 406.31 148.49 L 407.32 149.84 L 408.32 151.21 L 409.29 152.59 L 410.25 153.99 L 411.19 155.39 L 412.10 156.81 L 413.00 158.23 L 413.88 159.67 L 414.73 161.12 L 415.57 162.57 L 416.39 164.04 L 417.18 165.51 L 417.96 166.99 L 418.71 168.49 L 419.45 169.99 L 420.16 171.50 L 420.85 173.01 L 421.52 174.54 L 422.17 176.07 L 422.80 177.61 L 423.41 179.15 L 423.99 180.70 L 424.56 182.26 L 425.10 183.82 L 425.62 185.39 L 426.12 186.96 L 426.60 188.54 L 427.06 190.12 L 427.49 191.71 L 427.91 193.30 L 428.30 194.89 L 428.67 196.49 L 429.01 198.09 L 429.34 199.70 L 429.64 201.30 L 429.93 202.91 L 430.19 204.52 L 430.42 206.13 L 430.64 207.74 L 430.83 209.36 L 431.01 210.97 L 431.16 212.58 L 431.28 214.20 L 431.39 215.81 L 431.47 217.43 L 431.54 219.04 L 431.58 220.65 L 431.59 222.26 L 431.59 223.87 L 431.57 225.47 L 431.52 227.08 L 431.45 228.68 L 431.36 230.27 L 431.24 231.87 L 431.11 233.46 L 430.95 235.05 L 430.77 236.63 L 430.57 238.20 L 430.35 239.78 L 430.10 241.34 L 429.84 242.90 L 429.54 244.46 L 429.54 244.46 L 429.85 242.91 L 430.15 241.35 L 430.42 239.79 L 430.68 238.22 L 430.92 236.65 L 431.14 235.07 L 431.34 233.48 L 431.52 231.89 L 431.68 230.30 L 431.82 228.70 L 431.94 227.10 L 432.05 225.49 L 432.13 223.88 L 432.19 222.27 L 432.23 220.65 L 432.25 219.03 L 432.24 217.41 L 432.22 215.78 L 432.18 214.15 L 432.11 212.52 L 432.03 210.89 L 431.92 209.26 L 431.79 207.62 L 431.64 205.98 L 431.47 204.35 L 431.28 202.71 L 431.06 201.07 L 430.83 199.44 L 430.57 197.80 L 430.29 196.17 L 429.99 194.53 L 429.67 192.90 L 429.32 191.27 L 428.96 189.64 L 428.57 188.01 L 428.16 186.38 L 427.73 184.76 L 427.28 183.14 L 426.80 181.52 L 426.30 179.91 L 425.79 178.30 L 425.24 176.70 L 424.68 175.10 L 424.10 173.50 L 423.49 171.91 L 422.86 170.32 L 422.22 168.74 L 421.54 167.17 L 420.85 165.60 L 420.14 164.04 L 419.40 162.49 L 418.64 160.94 L 417.87 159.40 L 417.07 157.87 L 416.24 156.34 L 415.40 154.83 L 414.54 153.32 L 413.65 151.82 L 412.75 150.33 L 411.82 148.85 L 410.87 147.38 L 409.90 145.92 L 408.91 144.47 L 407.90 143.03 L 406.87 141.60 L 405.82 140.19 L 404.75 138.78 L 403.66 137.39 L 402.51 136.04 L 401.34 134.70 L 400.16 133.38 L 398.95 132.07 L 397.72 130.78 L 396.48 129.50 L 395.22 128.23 L 393.94 126.98 L 392.64 125.75 L 391.32 124.53 L 389.99 123.33 L 388.64 122.14 L 387.27 120.97 L 385.89 119.82 L 384.48 118.68 L 383.06 117.56 L 381.63 116.46 L 380.18 115.37 L 378.71 114.30 L 377.22 113.25 L 375.72 112.22 L 374.21 111.21 L 372.68 110.22 L 371.13 109.24 L 369.57 108.29 L 368.00 107.35 L 366.41 106.43 L 364.81 105.54 L 363.19 104.66 L 361.56 103.80 L 359.92 102.97 L 358.26 102.15 L 356.59 101.36 L 354.91 100.58 L 353.22 99.83 L 351.51 99.10 L 349.79 98.39 L 348.06 97.70 L 346.32 97.03 L 344.57 96.39 L 342.81 95.77 L 341.04 95.17 L 339.26 94.59 L 337.46 94.04 L 335.66 93.51 L 333.85 93.00 L 332.03 92.51 L 330.20 92.05 L 328.37 91.61 L 326.52 91.20 L 324.67 90.81 L 322.81 90.44 L 320.95 90.10 L 319.07 89.78 L 317.19 89.48 L 315.31 89.21 L 313.42 88.97 L 311.52 88.74 L 309.62 88.55 L 307.71 88.38 L 305.80 88.23 L 303.88 88.11 L 301.96 88.01 L 300.04 87.94 L 298.11 87.89 L 296.18 87.87 L 294.25 87.87 L 292.31 87.90 L 290.38 87.95 L 288.44 88.03 L 286.50 88.14 L 284.56 88.27 L 282.62 88.43 L 280.68 88.61 L 278.73 88.81 L 276.79 89.05 L 274.86 89.34 L 272.92 89.65 L 270.99 89.99 L 269.06 90.35 L 267.13 90.74 L 265.21 91.16 L 263.29 91.60 L 261.37 92.07 L 259.46 92.57 L 257.55 93.09 L 255.65 93.63 L 253.75 94.20 L 251.86 94.80 L 249.97 95.42 L 248.09 96.07 L 246.22 96.74 L 244.35 97.44 L 242.49 98.16 L 240.64 98.91 L 238.80 99.68 L 236.96 100.48 L 235.14 101.31 L 233.32 102.16 L 231.51 103.03 L 229.71 103.93 L 227.92 104.85 L 226.15 105.80 L 224.38 106.77 L 222.62 107.76 L 220.88 108.78 L 219.14 109.83 L 217.42 110.90 L 215.71 111.99 L 214.01 113.10 L 212.33 114.24 L 210.66 115.40 L 209.00 116.59 L 207.36 117.80 L 205.73 119.03 L 204.12 120.28 L 202.52 121.56 L 200.93 122.86 L 199.36 124.18 L 197.81 125.52 L 196.27 126.89 L 194.75 128.27 L 193.25 129.68 L 191.76 131.11 L 190.29 132.57 L 188.84 134.04 L 187.41 135.53 L 185.99 137.05 L 184.60 138.59 L 183.22 140.15 L 181.87 141.73 L 180.57 143.37 Z" fill="#DBEAFE" opacity="0.7"/>
  <path d="M 279.46 120.02 L 280.67 120.03 L 281.86 119.98 L 283.05 119.93 L 284.24 119.88 L 285.42 119.83 L 286.61 119.79 L 287.79 119.75 L 288.96 119.73 L 290.14 119.71 L 291.32 119.70 L 292.49 119.71 L 293.66 119.72 L 294.82 119.74 L 295.99 119.77 L 297.15 119.81 L 298.31 119.87 L 299.47 119.93 L 300.63 120.00 L 301.78 120.09 L 302.93 120.18 L 304.08 120.29 L 305.23 120.40 L 306.37 120.53 L 307.51 120.67 L 308.65 120.82 L 309.78 120.97 L 310.91 121.14 L 312.04 121.32 L 313.16 121.51 L 314.28 121.71 L 315.39 121.92 L 316.51 122.14 L 317.61 122.38 L 318.72 122.62 L 319.82 122.87 L 320.92 123.13 L 322.01 123.41 L 323.10 123.69 L 324.18 123.98 L 325.26 124.29 L 326.33 124.60 L 327.40 124.92 L 328.47 125.26 L 329.53 125.60 L 330.58 125.96 L 331.63 126.32 L 332.68 126.69 L 333.72 127.08 L 334.75 127.47 L 335.78 127.87 L 336.80 128.28 L 337.82 128.70 L 338.84 129.14 L 339.84 129.58 L 340.84 130.03 L 341.84 130.48 L 342.83 130.95 L 343.81 131.43 L 344.79 131.92 L 345.76 132.41 L 346.72 132.92 L 347.68 133.43 L 348.63 133.95 L 349.57 134.48 L 350.52 135.00 L 351.46 135.54 L 352.40 136.08 L 353.32 136.63 L 354.24 137.18 L 355.16 137.75 L 356.06 138.33 L 356.96 138.91 L 357.86 139.50 L 358.74 140.10 L 359.62 140.71 L 360.49 141.33 L 361.36 141.95 L 362.21 142.58 L 363.06 143.22 L 363.91 143.87 L 364.74 144.52 L 365.57 145.19 L 366.39 145.86 L 367.20 146.53 L 368.00 147.22 L 368.80 147.91 L 369.58 148.61 L 370.36 149.32 L 371.14 150.03 L 371.90 150.75 L 372.65 151.47 L 373.40 152.21 L 374.14 152.95 L 374.87 153.69 L 375.59 154.45 L 376.30 155.21 L 377.01 155.97 L 377.70 156.74 L 378.39 157.52 L 379.07 158.30 L 379.74 159.09 L 380.40 159.89 L 381.05 160.69 L 381.70 161.49 L 382.33 162.31 L 382.96 163.12 L 383.57 163.95 L 384.18 164.77 L 384.78 165.61 L 385.37 166.44 L 385.95 167.28 L 386.52 168.13 L 387.08 168.98 L 387.63 169.84 L 388.17 170.70 L 388.70 171.57 L 389.23 172.43 L 389.74 173.31 L 390.25 174.19 L 390.74 175.07 L 391.23 175.95 L 391.71 176.84 L 392.17 177.73 L 392.63 178.63 L 393.11 179.52 L 393.57 180.41 L 394.03 181.30 L 394.48 182.20 L 394.91 183.10 L 395.34 184.00 L 395.76 184.91 L 396.17 185.82 L 396.57 186.74 L 396.96 187.66 L 397.34 188.58 L 397.71 189.50 L 398.07 190.43 L 398.42 191.36 L 398.76 192.29 L 399.09 193.22 L 399.41 194.16 L 399.72 195.10 L 400.02 196.04 L 400.31 196.99 L 400.59 197.93 L 400.86 198.88 L 401.12 199.83 L 401.37 200.78 L 401.61 201.74 L 401.84 202.69 L 402.06 203.65 L 402.27 204.60 L 402.47 205.56 L 402.66 206.52 L 402.84 207.48 L 403.01 208.44 L 403.17 209.41 L 403.32 210.37 L 403.46 211.33 L 403.59 212.30 L 403.71 213.26 L 403.82 214.22 L 403.92 215.19 L 404.01 216.15 L 404.09 217.12 L 404.16 218.08 L 404.22 219.05 L 404.27 220.01 L 404.30 220.97 L 404.33 221.93 L 404.35 222.90 L 404.36 223.86 L 404.36 224.82 L 404.35 225.78 L 404.33 226.73 L 404.30 227.69 L 404.26 228.64 L 404.21 229.60 L 404.14 230.55 L 404.07 231.50 L 403.99 232.45 L 403.90 233.39 L 403.80 234.34 L 403.69 235.28 L 403.57 236.22 L 403.44 237.16 L 403.30 238.09 L 403.16 239.03 L 403.00 239.96 L 402.83 240.88 L 402.65 241.81 L 402.46 242.73 L 402.26 243.65 L 402.06 244.56 L 401.84 245.47 L 401.61 246.38 L 401.38 247.29 L 401.13 248.19 L 400.87 249.08 L 400.60 249.98 L 400.60 249.98 L 400.88 249.09 L 401.15 248.19 L 401.42 247.30 L 401.68 246.40 L 401.93 245.50 L 402.17 244.59 L 402.40 243.68 L 402.63 242.77 L 402.85 241.85 L 403.06 240.93 L 403.26 240.01 L 403.45 239.08 L 403.63 238.15 L 403.81 237.22 L 403.97 236.28 L 404.13 235.34 L 404.28 234.40 L 404.41 233.46 L 404.54 232.51 L 404.66 231.56 L 404.78 230.61 L 404.88 229.65 L 404.97 228.69 L 405.06 227.73 L 405.13 226.77 L 405.19 225.81 L 405.25 224.84 L 405.30 223.87 L 405.33 222.91 L 405.36 221.93 L 405.38 220.96 L 405.38 219.99 L 405.38 219.01 L 405.37 218.03 L 405.35 217.05 L 405.32 216.07 L 405.28 215.09 L 405.23 214.11 L 405.17 213.13 L 405.10 212.14 L 405.02 211.16 L 404.93 210.17 L 404.83 209.19 L 404.72 208.20 L 404.60 207.21 L 404.47 206.23 L 404.33 205.24 L 404.18 204.25 L 404.01 203.26 L 403.84 202.28 L 403.66 201.29 L 403.47 200.30 L 403.27 199.32 L 403.06 198.33 L 402.84 197.35 L 402.61 196.37 L 402.37 195.38 L 402.12 194.40 L 401.85 193.42 L 401.58 192.44 L 401.30 191.46 L 401.01 190.48 L 400.71 189.51 L 400.39 188.53 L 400.07 187.56 L 399.74 186.59 L 399.39 185.62 L 399.04 184.66 L 398.68 183.69 L 398.30 182.73 L 397.92 181.77 L 397.52 180.81 L 397.12 179.86 L 396.70 178.91 L 396.28 177.96 L 395.84 177.01 L 395.37 176.08 L 394.89 175.16 L 394.39 174.24 L 393.89 173.32 L 393.38 172.41 L 392.85 171.50 L 392.32 170.59 L 391.78 169.69 L 391.23 168.80 L 390.66 167.90 L 390.09 167.02 L 389.51 166.14 L 388.92 165.26 L 388.32 164.39 L 387.71 163.52 L 387.09 162.66 L 386.46 161.80 L 385.83 160.95 L 385.18 160.10 L 384.52 159.26 L 383.86 158.43 L 383.18 157.60 L 382.50 156.78 L 381.80 155.96 L 381.10 155.15 L 380.39 154.35 L 379.67 153.55 L 378.94 152.75 L 378.20 151.97 L 377.46 151.19 L 376.70 150.42 L 375.94 149.65 L 375.16 148.89 L 374.38 148.14 L 373.59 147.40 L 372.79 146.66 L 371.99 145.93 L 371.17 145.21 L 370.35 144.49 L 369.52 143.78 L 368.68 143.08 L 367.83 142.39 L 366.98 141.70 L 366.12 141.03 L 365.24 140.36 L 364.37 139.69 L 363.48 139.04 L 362.59 138.40 L 361.69 137.76 L 360.78 137.13 L 359.86 136.51 L 358.94 135.90 L 358.01 135.30 L 357.07 134.70 L 356.12 134.12 L 355.17 133.54 L 354.21 132.97 L 353.25 132.41 L 352.28 131.86 L 351.30 131.32 L 350.31 130.81 L 349.31 130.30 L 348.30 129.80 L 347.29 129.32 L 346.27 128.84 L 345.25 128.37 L 344.22 127.92 L 343.18 127.47 L 342.14 127.03 L 341.10 126.61 L 340.04 126.19 L 338.99 125.78 L 337.93 125.39 L 336.86 125.00 L 335.79 124.63 L 334.71 124.26 L 333.63 123.91 L 332.55 123.56 L 331.46 123.23 L 330.36 122.91 L 329.26 122.59 L 328.16 122.29 L 327.05 122.00 L 325.94 121.72 L 324.82 121.46 L 323.71 121.20 L 322.58 120.95 L 321.46 120.72 L 320.33 120.49 L 319.19 120.28 L 318.06 120.08 L 316.92 119.89 L 315.78 119.71 L 314.63 119.54 L 313.48 119.38 L 312.33 119.24 L 311.18 119.11 L 310.02 118.98 L 308.86 118.87 L 307.70 118.78 L 306.54 118.69 L 305.38 118.61 L 304.21 118.55 L 303.04 118.50 L 301.87 118.46 L 300.70 118.43 L 299.53 118.41 L 298.35 118.41 L 297.17 118.41 L 296.00 118.43 L 294.82 118.46 L 293.64 118.51 L 292.46 118.56 L 291.28 118.63 L 290.10 118.71 L 288.92 118.80 L 287.74 118.90 L 286.55 119.02 L 285.37 119.14 L 284.19 119.28 L 283.01 119.44 L 281.82 119.61 L 280.64 119.79 L 279.46 120.02 Z" fill="#DBEAFE" opacity="0.45"/>
  <circle cx="310.0" cy="304.0" r="7" fill="#DBEAFE"/>
  <circle cx="293.6" cy="421.3" r="6" fill="#DBEAFE"/>
  <circle cx="305.8" cy="281.8" r="4.5" fill="#DBEAFE"/>
  <circle cx="313.9" cy="265.8" r="3.6" fill="#DBEAFE"/>
  <circle cx="314.4" cy="246.2" r="2.8" fill="#DBEAFE"/>
</svg>